# AST/ASF file generated using VICON BodyLanguage
# -----------------------------------------------
:version 1.10
:name VICON
:units
  mass 1.0
  length 0.45
  angle deg
:documentation
   .ast/.asf automatically generated from VICON data using
   VICON BodyBuilder and BodyLanguage model FoxedUp or BRILLIANT.MOD
:root
   order TX TY TZ RX RY RZ
   axis XYZ
   position 0 0 0  
   orientation 0 -0 0 
:bonedata
  begin
     id 1 
     name lhipjoint
     direction 0.515797 -0.759363 0.396637 
     length 2.47888 
     axis 0 -0 0  XYZ
  end
  begin
     id 2 
     name lfemur
     direction 0.34202 -0.939693 0  
     length 6.81885  
     axis 0 -0 20  XYZ
    dof rx ry rz
    limits (-160.0 20.0)
           (-70.0 70.0)
           (-60.0 70.0)
  end
  begin
     id 3 
     name ltibia
     direction 0.342037 -0.939687 0   
     length 7.89258   
     axis 0 -0 20   XYZ
    dof rx
    limits (-10.0 170.0)
  end
  begin
     id 4 
     name lfoot
     direction 0.173497 -0.476678 0.861787   
     length 2.51543   
     axis -90 -1.13533e-015 20   XYZ
    dof rx rz
    limits (-45.0 90.0)
           (-70.0 20.0)
  end
  begin
     id 5 
     name ltoes
     direction 1.53564e-011 -4.21897e-011 1   
     length 1.21388   
     axis -90 -1.13533e-015 20   XYZ
    dof rx
    limits (-90.0 20.0)
  end
  begin
     id 6 
     name rhipjoint
     direction -0.489454 -0.772941 0.403729   
     length 2.43534  
     axis 0 -0 0  XYZ 
  end
  begin
     id 7 
     name rfemur
     direction -0.34202 -0.939693 0   
     length 7.10357   
     axis 0 -0 -20   XYZ
    dof rx ry rz
    limits (-160.0 20.0)
           (-70.0 70.0)
           (-70.0 60.0)
  end
  begin
     id 8 
     name rtibia
     direction -0.34202 -0.939693 0   
     length 9.16127   
     axis 0 -0 -20   XYZ
    dof rx
    limits (-10.0 170.0)
 end
 begin
     id 9 
     name rfoot
     direction -0.270974 -0.748671 0.605033   
     length 1.74894  
     axis -90 1.13533e-015 -20   XYZ
    dof rx rz
    limits (-45.0 90.0)
           (-20.0 70.0)
  end
  begin
     id 10 
     name rtoes
     direction -1.53557e-011 -4.21759e-011 1   
     length 0.787585   
     axis -90 1.13533e-015 -20   XYZ
    dof rx
    limits (-90.0 20.0)
  end
  begin
     id 11 
     name lowerback
     direction -0.0140249 0.999561 0.0260968   
     length 2.16963   
     axis 0 -0 0   XYZ
    dof rx ry rz
    limits (-20.0 45.0)
           (-30.0 30.0)
           (-30.0 30.0)
  end
  begin
     id 12 
     name upperback
     direction 0.00860018 0.999959 -0.002711   
     length 2.1726   
     axis 0 -0 0   XYZ
    dof rx ry rz
    limits (-20.0 45.0)
           (-30.0 30.0)
           (-30.0 30.0)
  end
  begin
     id 13 
     name thorax
     direction 0.015211 0.999782 -0.0143191   
     length 2.17061   
     axis 0 -0 0   XYZ
    dof rx ry rz
    limits (-20.0 45.0)
           (-30.0 30.0)
           (-30.0 30.0)
  end
  begin
     id 14 
     name lowerneck
     direction -0.0140143 0.999447 0.030145   
     length 2.26749   
     axis 0 -0 0   XYZ
    dof rx ry rz
    limits (-20.0 45.0)
           (-30.0 30.0)
           (-30.0 30.0)
  end
  begin
     id 15 
     name upperneck
     direction 0.118062 0.961438 -0.248392   
     length 2.22728   
     axis 0 -0 0   XYZ
    dof rx ry rz
    limits (-20.0 45.0)
           (-30.0 30.0)
           (-30.0 30.0)
  end
  begin
     id 16
     name head
     direction 0.0431885 0.9954 -0.085514  
     length 2.28786  
     axis 0 -0 0   XYZ
    dof rx ry rz
    limits (-20.0 45.0)
           (-30.0 30.0)
           (-30.0 30.0)
  end
  begin
     id 17 
     name lclavicle
     direction 0.912126 0.409548 0.0172323  
     length 4.31571  
     axis 0 -0 0   XYZ
    dof ry rz
    limits (-20.0 10.0)
           (0.0 20.0)
  end
  begin
     id 18 
     name lhumerus
     direction 1 -4.48977e-011 1.93091e-027   
     length 5.13658   
     axis 180 -30 -90   XYZ
    dof rx ry rz
    limits (-60.0 90.0)
           (-90.0 90.0)
           (-90.0 90.0)
  end
  begin
     id 19
     name lradius
     direction 1 -4.48916e-011 6.84018e-027   
     length 3.22473   
     axis 180 -30 -90   XYZ
    dof rx
    limits (-10.0 170.0)
  end
  begin
     id 20
     name lwrist
     direction 1 -4.48987e-011 7.01981e-027   
     length 1.61236   
     axis -4.37994e-015 90 90   XYZ
    dof ry
    limits (-180.0 0.0)
 end
  begin
     id 21 
     name lhand
     direction 1 -4.49037e-011 1.40335e-026   
     length 0.936406   
     axis -8.96029e-015 90 90   XYZ
    dof rx rz
    limits (-90.0 90.0)
           (-45.0 45.0)
  end
  begin
     id 22 
     name lfingers
     direction 1 -4.48886e-011 2.8104e-026   
     length 0.754955   
     axis -1.79203e-014 90 90   XYZ
    dof rx
    limits (0.0 90.0)
  end
  begin
     id 23
     name lthumb
     direction 0.707107 -6.34937e-011 0.707107   
     length 1.08397   
     axis -90 45 -4.48555e-014   XYZ
    dof rx rz
    limits (-45.0 45.0)
           (-45.0 45.0)
  end
  begin
     id 24 
     name rclavicle
     direction -0.947962 0.317997 0.0156638   
     length 4.86918  
     axis 0 -0 0   XYZ 
    dof ry rz
    limits (-10.0 20.0)
           (-20.0 0.0)
  end
  begin
     id 25 
     name rhumerus
     direction -1 -4.48951e-011 2.80534e-018  
     length 5.60911   
     axis 180 30 90   XYZ
    dof rx ry rz
    limits (-90.0 60.0)
           (-90.0 90.0)
           (-90.0 90.0)
  end
  begin
     id 26 
     name rradius
     direction -1 -4.4898e-011 2.11315e-027   
     length 3.38704   
     axis 180 30 90   XYZ
    dof rx
    limits (-10.0 170.0)
  end
  begin
     id 27 
     name rwrist
     direction -1 -4.48933e-011 7.02314e-027   
     length 1.69352   
     axis -4.37994e-015 -90 -90   XYZ
    dof ry
    limits (-180.0 0.0)
  end
  begin
     id 28
     name rhand
     direction -1 -4.48937e-011 1.40458e-026   
     length 0.755878   
     axis -8.96029e-015 -90 -90   XYZ
    dof rx rz
    limits (-90.0 90.0)
           (-45.0 45.0)
  end
  begin
     id 29
     name rfingers
     direction -1 -4.4901e-011 2.80737e-026   
     length 0.609409   
     axis -1.79203e-014 -90 -90   XYZ
    dof rx
    limits (0.0 90.0)
  end
  begin
     id 30
     name rthumb
     direction -0.707107 -6.34968e-011 0.707107   
     length 0.874992   
     axis -90 -45 4.48555e-014   XYZ
    dof rx rz
    limits (-45.0 45.0)
           (-45.0 45.0)
  end
:hierarchy
  begin
    root lhipjoint rhipjoint lowerback
    lhipjoint lfemur
    lfemur ltibia
    ltibia lfoot
    lfoot ltoes
    rhipjoint rfemur
    rfemur rtibia
    rtibia rfoot
    rfoot rtoes
    lowerback upperback
    upperback thorax
    thorax lowerneck lclavicle rclavicle
    lowerneck upperneck
    upperneck head
    lclavicle lhumerus
    lhumerus lradius
    lradius lwrist
    lwrist lhand lthumb
    lhand lfingers
    rclavicle rhumerus
    rhumerus rradius
    rradius rwrist
    rwrist rhand rthumb
    rhand rfingers
  end

#!OML:ASF C:\ViconDB\ViconDB\414\Spring2016\041811\Spring2016.ASF
:FULLY-SPECIFIED
:DEGREES
46
root 12.248 18.2406 6.01486 -177.604 -7.22256 -177.593
lowerback -5.15629 0.915051 -1.0011
upperback 1.0725 1.25322 0.790471
thorax 3.95983 0.588394 1.48391
lowerneck -12.9242 3.36681 -4.20906
upperneck 25.1042 1.85023 10.1832
head 9.90578 1.13652 4.46173
rclavicle 2.92835e-014 -7.95139e-015
rhumerus -41.122 -18.7922 -84.3657
rradius 31.5151
rwrist 51.1363
rhand -35.0633 -11.6555
rfingers 7.12502
rthumb -8.20589 -41.4762
lclavicle 2.92835e-014 -7.95139e-015
lhumerus -37.3846 -1.8798 90.4689
lradius 24.9306
lwrist -36.4271
lhand -25.202 13.2864
lfingers 7.12502
lthumb 1.31652 43.262
rfemur 170.296 63.3291 -163.402
rtibia 27.8196
rfoot -69.2338 -39.9703
rtoes -31.0152
lfemur -9.21138 -8.03507 -16.6634
ltibia 25.329
lfoot -21.7787 7.53759
ltoes -12.2604
47
root 12.2436 18.2404 6.01016 -177.572 -7.21359 -177.62
lowerback -5.19489 0.879198 -1.06717
upperback 1.09727 1.20851 0.825603
thorax 4.00671 0.563548 1.55468
lowerneck -12.9973 3.39132 -4.27802
upperneck 25.134 1.91478 10.1567
head 9.92385 1.1607 4.47503
rclavicle -8.0632e-015 -1.39149e-015
rhumerus -41.031 -18.64 -84.3821
rradius 31.4756
rwrist 51.1934
rhand -35.0964 -11.721
rfingers 7.12502
rthumb -8.23785 -41.5404
lclavicle -8.0632e-015 -1.39149e-015
lhumerus -37.3017 -1.70745 90.4553
lradius 24.8942
lwrist -36.5597
lhand -25.2025 13.2913
lfingers 7.12502
lthumb 1.31599 43.267
rfemur 170.325 63.3211 -163.42
rtibia 27.8201
rfoot -69.2352 -39.9975
rtoes -31.1613
lfemur -9.22469 -8.01876 -16.714
ltibia 25.3384
lfoot -21.7846 7.55864
ltoes -12.389
48
root 12.2402 18.2406 6.00545 -177.546 -7.2021 -177.616
lowerback -5.23098 0.908023 -1.01222
upperback 1.09896 1.24718 0.749518
thorax 4.03031 0.585027 1.44928
lowerneck -12.961 3.38923 -4.15498
upperneck 25.0946 1.86061 10.2199
head 9.90926 1.15157 4.46741
rclavicle 1.42007e-014 -1.19271e-015
rhumerus -41.0311 -18.8088 -84.4538
rradius 31.4458
rwrist 51.2084
rhand -35.1657 -11.7187
rfingers 7.12502
rthumb -8.30468 -41.5355
lclavicle 1.42007e-014 -1.19271e-015
lhumerus -37.286 -1.80998 90.3706
lradius 24.9071
lwrist -36.6083
lhand -25.1737 13.3042
lfingers 7.12502
lthumb 1.34381 43.2797
rfemur 170.349 63.3309 -163.4
rtibia 27.8323
rfoot -69.2362 -40.0261
rtoes -31.0944
lfemur -9.23242 -7.986 -16.7169
ltibia 25.3289
lfoot -21.7822 7.5382
ltoes -12.3996
49
root 12.2358 18.2401 6.001 -177.54 -7.20873 -177.632
lowerback -5.22836 0.912095 -1.00267
upperback 1.1056 1.25359 0.715733
thorax 4.03645 0.588886 1.40961
lowerneck -12.9743 3.40185 -4.12789
upperneck 25.1124 1.8525 10.2719
head 9.91872 1.15488 4.48141
rclavicle 3.06501e-014 -7.95139e-016
rhumerus -41.0201 -18.8876 -84.476
rradius 31.4366
rwrist 51.1634
rhand -35.1444 -11.6727
rfingers 7.12502
rthumb -8.28416 -41.4903
lclavicle 3.06501e-014 -7.95139e-016
lhumerus -37.2991 -1.938 90.3735
lradius 24.9328
lwrist -36.41
lhand -25.2 13.2
lfingers 7.12502
lthumb 1.31842 43.1757
rfemur 170.314 63.3283 -163.463
rtibia 27.8321
rfoot -69.1999 -40.034
rtoes -30.8836
lfemur -9.22147 -7.9491 -16.7501
ltibia 25.3308
lfoot -21.7771 7.49645
ltoes -12.3446
50
root 12.2313 18.2406 5.99602 -177.548 -7.2008 -177.638
lowerback -5.18872 0.903131 -1.03709
upperback 1.09984 1.24278 0.734848
thorax 4.0073 0.582716 1.44685
lowerneck -12.945 3.40689 -4.08629
upperneck 25.0858 1.88691 10.1574
head 9.90319 1.16348 4.43527
rclavicle -7.61594e-015 -2.18663e-015
rhumerus -41.0316 -18.8455 -84.4549
rradius 31.4227
rwrist 51.1311
rhand -35.0902 -11.6691
rfingers 7.12502
rthumb -8.23181 -41.4887
lclavicle -7.61594e-015 -2.18663e-015
lhumerus -37.3098 -1.90954 90.397
lradius 24.9169
lwrist -36.3466
lhand -25.2093 13.1521
lfingers 7.12502
lthumb 1.30941 43.1278
rfemur 170.263 63.3556 -163.53
rtibia 27.8233
rfoot -69.2563 -39.9639
rtoes -31.1607
lfemur -9.18921 -7.98185 -16.7746
ltibia 25.3363
lfoot -21.814 7.51739
ltoes -12.3355
51
root 12.2261 18.2399 5.99149 -177.539 -7.19557 -177.578
lowerback -5.18448 0.909703 -0.996567
upperback 1.09711 1.24724 0.76508
thorax 4.0021 0.58543 1.45558
lowerneck -12.9535 3.40029 -4.09265
upperneck 25.0841 1.88542 10.1415
head 9.90451 1.1613 4.43081
rclavicle -1.52567e-014 1.59028e-015
rhumerus -41.0418 -18.8026 -84.356
rradius 31.4747
rwrist 51.3419
rhand -34.8382 -11.6097
rfingers 7.12502
rthumb -7.98862 -41.4387
lclavicle -1.52567e-014 1.59028e-015
lhumerus -37.2943 -1.91093 90.4322
lradius 24.8964
lwrist -36.3214
lhand -25.1691 13.2625
lfingers 7.12502
lthumb 1.34821 43.238
rfemur 170.273 63.3318 -163.477
rtibia 27.8092
rfoot -69.2347 -39.9677
rtoes -31.0266
lfemur -9.19035 -8.01103 -16.7242
ltibia 25.3429
lfoot -21.8374 7.54338
ltoes -12.3678
